<?xml version="1.0" encoding="UTF-8"?>
<!-- Uploaded to: SVG Repo, www.svgrepo.com, Generator: SVG Repo Mixer Tools -->
<svg width="800px" height="800px" version="1.1" viewBox="144 144 512 512" xmlns="http://www.w3.org/2000/svg">
 <defs>
  <clipPath id="b">
   <path d="m148.09 148.09h412.91v503.81h-412.91z"/>
  </clipPath>
  <clipPath id="a">
   <path d="m484 219h167.9v367h-167.9z"/>
  </clipPath>
 </defs>
 <g clip-path="url(#b)">
  <path d="m193.89 148.12c-25.176 0-45.797 20.625-45.797 45.797v412.16c0 25.172 20.621 45.797 45.797 45.797h320.57c25.172 0 45.797-20.621 45.797-45.797l-0.003906-23.48h-22.898v23.48c0 12.883-10.016 22.898-22.898 22.898l-320.56-0.003906c-12.887 0-22.898-10.012-22.898-22.895v-412.16c0-12.883 10.012-22.898 22.898-22.898h320.57c12.883 0 22.898 10.016 22.898 22.898v45.797h22.898l-0.003906-45.797c0-25.172-20.625-45.797-45.797-45.797z"/>
 </g>
 <path d="m354.18 193.92c-63.094 0-114.49 51.395-114.49 114.49s51.395 114.49 114.49 114.49 114.49-51.395 114.49-114.49-51.395-114.49-114.49-114.49zm0 22.898c50.719 0 91.59 40.871 91.59 91.59 0 19.527-6.0898 37.578-16.434 52.414-7.3281-19.734-22.215-35.859-41.121-44.789 7.2969-8.1211 11.762-18.832 11.762-30.523 0-25.156-20.641-45.797-45.797-45.797s-45.797 20.641-45.797 45.797c0 11.691 4.4648 22.402 11.762 30.523-18.91 8.9297-33.793 25.055-41.121 44.789-10.344-14.836-16.43-32.883-16.43-52.41 0-50.719 40.871-91.59 91.59-91.59zm0 45.797c12.781 0 22.898 10.117 22.898 22.898s-10.117 22.898-22.898 22.898-22.898-10.117-22.898-22.898 10.117-22.898 22.898-22.898zm0 68.691c28.984 0 52.738 21.25 56.664 49.105-15.574 12.262-35.227 19.59-56.66 19.59-21.43 0-41.09-7.3164-56.664-19.566 3.9141-27.867 27.672-49.129 56.664-49.129z"/>
 <path d="m262.58 457.24v22.898h194.63v-22.898z"/>
 <path d="m262.58 514.48v22.898h194.63v-22.898z"/>
 <path d="m262.58 571.73v22.898h194.63v-22.898z"/>
 <path d="m216.79 457.24v22.898h22.898v-22.898z"/>
 <path d="m216.79 514.48v22.898h22.898v-22.898z"/>
 <path d="m216.79 571.73v22.898h22.898v-22.898z"/>
 <g clip-path="url(#a)">
  <path d="m573.88 243.85c-29.543 86.07-59.105 172.14-88.66 258.2-0.55469 1.6016-0.74219 3.3047-0.55859 4.9883l7.5117 68.27c1.0664 9.7148 13.027 13.715 19.723 6.5977l46.621-49.664c1.1094-1.1797 1.9531-2.582 2.4805-4.1133l88.664-258.2c16.242-48.227-60.336-72.195-75.781-26.074zm54.137 18.648-11.07 32.223-32.492-11.18 11.07-32.223c6.4141-18.504 38.812-7.9492 32.492 11.18zm-50.984 42.688 32.469 11.18-69.363 201.98-27.93 29.762-4.5156-41.031z"/>
 </g>
</svg>